<svg width="533" height="180" viewBox="0 0 533 180" fill="none" xmlns="http://www.w3.org/2000/svg">
<g clip-path="url(#clip0_1_2)">
<path d="M114.67 133.09L119.24 143.15H141.99C140.78 140.23 139.71 137.49 138.53 134.81C132.49 121.043 126.437 107.287 120.37 93.54C119.27 91.0712 118.721 88.3925 118.76 85.69C118.85 70.03 118.76 54.36 118.76 38.69V37.38L119.05 37.19C120.77 39.66 122.49 42.13 124.3 44.75C124.668 44.1872 125.002 43.6028 125.3 43C127.59 37.65 132.01 35.13 137.38 33.86C144.82 32.1 152.9 36.49 155.27 43.57C155.841 45.0679 156.024 46.6857 155.801 48.2731C155.579 49.8606 154.96 51.3662 154 52.65C151.71 55.81 148.35 56.83 144.34 55.45C142.863 54.8589 141.418 54.1913 140.01 53.45C139.59 53.25 139.18 53.02 138.71 52.78C138.55 59.78 143.37 65.88 151.1 64.96C153.735 64.7088 156.27 63.8236 158.488 62.38C160.707 60.9364 162.543 58.9773 163.84 56.67C163.99 56.42 164.17 56.18 164.52 55.67V107.47C164.681 115.059 164.098 122.645 162.78 130.12C160.54 141.32 154.63 150.3 146.08 157.64C134.34 167.73 120.62 173.81 105.67 177.3C95.6667 179.727 85.3389 180.534 75.08 179.69C54.86 177.88 36.17 171.8 20 159.14C14.4731 154.957 9.89916 149.646 6.58198 143.56C3.2648 137.474 1.28022 130.752 0.76 123.84C0.34 119.23 0.06 114.6 0.04 109.97C-0.05 92.47 0.04 74.97 0.04 57.48C0.0354571 57.0727 0.0521464 56.6655 0.09 56.26C1.27 57.72 2.28 59.04 3.37 60.26C7.87 65.43 15.71 66.75 20.9 63.15C24.53 60.64 25.9 57.04 25.72 52.56C24.59 53.22 23.64 53.85 22.63 54.36C20.05 55.68 17.36 56.43 14.45 55.65C12.3817 55.0465 10.6229 53.6739 9.53499 51.8141C8.44704 49.9544 8.11248 47.7487 8.6 45.65C9.30364 42.0216 11.3307 38.7842 14.2875 36.5666C17.2443 34.3491 20.9197 33.3095 24.6 33.65C28.2779 33.8853 31.8064 35.1924 34.75 37.41C36.5166 38.6711 37.9202 40.3748 38.82 42.35C39.17 43.14 39.6 43.91 40.11 44.92L45.44 37.48V82.93C45.4802 85.2381 45.0303 87.5286 44.12 89.65C38.52 102.483 32.9333 115.32 27.36 128.16C25.1 133.37 22.87 138.6 20.62 143.83C20.5811 144.028 20.5242 144.222 20.45 144.41H43.08C44.82 140.41 46.66 136.27 48.63 131.81C56.37 143.43 67.82 148.09 81.18 148.21C94.54 148.33 106.18 144.45 114.67 133.09ZM70.12 167.37C70.1364 168.347 70.4805 169.29 71.097 170.048C71.7136 170.806 72.5669 171.335 73.52 171.55C74.8977 171.92 76.3638 171.765 77.6335 171.114C78.9031 170.464 79.8856 169.364 80.39 168.03C81.6603 164.628 81.6603 160.882 80.39 157.48C80.1394 156.802 79.7577 156.18 79.2667 155.65C78.7757 155.12 78.185 154.692 77.5285 154.39C76.8719 154.088 76.1623 153.919 75.4401 153.891C74.718 153.864 73.9976 153.979 73.32 154.23C73.13 154.3 72.94 154.39 72.75 154.48C69.92 155.84 68.75 159.77 70.36 162.77C71.97 165.77 74.61 166.21 77.73 164.34C77.73 166.94 76.99 168.55 75.6 168.86C74.21 169.17 73.51 168.25 73.14 166.99L70.12 167.37ZM88.03 157.37H94.25V154.37H85.49C84.93 157.37 84.38 160.29 83.82 163.3L86.43 163.7L86.89 163.33C87.2969 162.91 87.8207 162.623 88.3933 162.505C88.9658 162.387 89.5606 162.445 90.1 162.67C90.6299 162.923 91.0647 163.339 91.3401 163.858C91.6156 164.376 91.7172 164.969 91.63 165.55C91.6809 166.264 91.5284 166.979 91.19 167.61C90.9722 167.943 90.6903 168.23 90.3607 168.453C90.031 168.676 89.6603 168.832 89.27 168.91C88.55 168.91 87.79 168.23 87.13 167.74C86.85 167.54 86.8 167.04 86.62 166.59L83.62 166.93C83.62 169.93 86.31 171.93 89.9 171.64C93.18 171.39 95.57 168.09 95.04 164.54C94.51 160.99 91.72 159.25 87.63 160.16L88.03 157.37ZM101.68 168.3L101.28 167.78C102.198 167.09 103.079 166.352 103.92 165.57C105.058 164.46 106.108 163.263 107.06 161.99C107.506 161.371 107.809 160.66 107.947 159.91C108.086 159.159 108.056 158.388 107.86 157.65C107.12 154.65 103.66 153.12 100.17 154.34C99.1709 154.649 98.3052 155.286 97.7135 156.148C97.1218 157.01 96.8386 158.047 96.91 159.09L99.39 159.37H99.99C100.08 159.03 100.15 158.73 100.24 158.43C100.295 158.15 100.405 157.884 100.563 157.647C100.721 157.409 100.924 157.205 101.161 157.047C101.397 156.888 101.663 156.777 101.943 156.721C102.222 156.665 102.51 156.665 102.79 156.72L102.98 156.77C103.466 156.818 103.913 157.054 104.227 157.428C104.541 157.802 104.696 158.283 104.66 158.77C104.65 158.885 104.63 158.999 104.6 159.11C104.333 160.188 103.815 161.189 103.09 162.03C101.52 163.83 99.66 165.39 98.16 167.24C97.3321 168.496 96.6414 169.837 96.1 171.24H107.93V168.24L101.68 168.3ZM64.93 171.3V154.03H62.39L62.65 154.33L57.46 158.89V161.56L61.73 159.11V171.39L64.93 171.3Z" fill="#3559D5"/>
<path d="M79.55 28.45H82.75L135.47 141.84H123.39C117.39 129.49 111.77 116.93 105.62 104.84H56.18C50.88 116.23 45.57 127.52 40.37 138.84C40.0078 139.876 39.3083 140.761 38.3836 141.352C37.4588 141.943 36.3624 142.206 35.27 142.1C32.27 142.01 29.36 142.1 26 142.1L79.55 28.45ZM80.99 53.03C74.5 66.56 68.06 80.03 61.6 93.51H100.67C93.67 80.09 88.09 66.15 80.99 53.03Z" fill="#3559D5"/>
<path d="M250.74 67.11C252.46 79.02 254.18 90.92 255.93 102.95H252.09C250.99 94.8 249.88 86.62 248.78 78.46C247.72 79.2 239.32 95.82 236.43 102.93H234.99L222.59 78.53H222.28C222.02 80.19 221.7 81.85 221.49 83.53C220.78 89.19 220.14 94.86 219.41 100.53C219.08 103.12 219.01 103.12 216.41 103.07H215.41C217.03 91.07 218.63 79.15 220.23 67.24L220.55 67.18C220.75 67.54 220.96 67.89 221.14 68.26C225.707 77.0867 230.247 85.9167 234.76 94.75C235.051 95.1988 235.386 95.6175 235.76 96L250.06 67L250.74 67.11Z" fill="#3559D5"/>
<path d="M496.63 85.29C497.43 96.24 486.82 104.17 477.63 104.1C469.08 104.04 458.63 97.25 458.83 84.74C458.9 79.8198 460.885 75.1205 464.363 71.6402C467.842 68.1598 472.54 66.1724 477.46 66.1C487.32 66.08 497.29 73.66 496.63 85.29ZM477.63 100.19C485.53 100.5 492.85 94.69 492.81 85.03C492.846 83.0601 492.493 81.1024 491.772 79.2688C491.051 77.4352 489.976 75.7616 488.608 74.3436C487.24 72.9256 485.607 71.791 483.8 71.0045C481.994 70.218 480.05 69.7951 478.08 69.76H477.87C468.87 69.67 462.87 76.36 462.87 86.35C462.87 93.68 470.11 100.81 477.67 100.19H477.63Z" fill="#3559D5"/>
<path d="M430.39 85.18C430.39 95.92 422.18 103.99 411.26 103.98C400.54 103.98 392.57 95.71 392.57 84.63C392.645 79.7244 394.634 75.0424 398.113 71.5826C401.591 68.1228 406.284 66.159 411.19 66.11C422.39 66.12 430.39 74.09 430.39 85.18ZM411.39 100.18C420.39 100.47 426.58 93.11 426.59 84.97C426.56 80.9777 424.978 77.1538 422.178 74.3075C419.378 71.4612 415.581 69.816 411.59 69.72C402.59 69.72 396.59 76.33 396.59 86.36C396.59 93.48 403.74 100.82 411.47 100.19L411.39 100.18Z" fill="#3559D5"/>
<path d="M323.88 66.81L327.88 67.05V103.24C327.023 102.821 326.223 102.293 325.5 101.67C319.75 95.08 314.07 88.43 308.34 81.81C306.85 80.1 305.28 78.45 303.53 76.53V103.03H299.53V67.03L300.34 66.97L323.88 94.03V66.81Z" fill="#3559D5"/>
<path d="M216.79 135.74V162.31H212.85V126.22C213.494 126.655 214.102 127.14 214.67 127.67C217.65 131.003 220.607 134.357 223.54 137.73C227.92 142.763 232.29 147.803 236.65 152.85C236.713 152.953 236.797 153.041 236.898 153.108C236.998 153.175 237.111 153.22 237.23 153.24V126.42H241.13V162.34H240.13L216.79 135.74Z" fill="#3559D5"/>
<path d="M333.04 146.03L345.66 162.33H340.78C337.09 157.44 333.35 152.52 329.64 147.57C328.83 146.48 327.98 145.62 326.38 146.11V162.33H322.49V126.63C322.78 126.51 322.96 126.35 323.13 126.36C327.87 126.51 332.64 126.44 337.35 126.93C339.192 127.057 340.938 127.794 342.313 129.026C343.688 130.258 344.613 131.913 344.94 133.73C345.45 135.43 345.445 137.243 344.927 138.94C344.41 140.637 343.402 142.144 342.03 143.27C339.84 145.15 337.16 145.74 334.36 145.95C333.925 146.031 333.482 146.058 333.04 146.03ZM326.44 130.03V142.03C327.99 142.03 329.44 142.11 330.93 142.03C333.142 142.019 335.348 141.801 337.52 141.38C340.33 140.66 341.35 138.84 341.19 135.89C341.03 132.94 339.66 131.08 336.95 130.73C333.5 130.26 329.95 130.27 326.44 130.08V130.03Z" fill="#3559D5"/>
<path d="M1.85999 6.29C2.48999 9.72 2.98999 13.18 3.78999 16.56C5.02999 21.56 7.72999 25.56 13.3 27.35C7.82347 30.652 3.27476 35.2902 0.0799866 40.83V0.169998C15.38 9.03 30.13 18.37 45.29 27.22V35.53C44.9827 35.3011 44.695 35.0468 44.43 34.77C39.18 27.85 32.2 23.03 24.85 18.66C18.15 14.66 11.35 10.93 4.57999 7.09C3.85066 6.71197 3.09931 6.37804 2.32999 6.09L1.85999 6.29Z" fill="#3559D5"/>
<path d="M118.91 28.72L164.53 0.0299988V41.23C161.528 35.5206 157 30.757 151.45 27.47C151.934 27.0603 152.448 26.6892 152.99 26.36C157.4 24.21 159.75 20.5 160.75 15.87C161.44 12.64 161.88 9.36 162.46 5.95C162.214 5.95806 161.969 5.99158 161.73 6.05C149.01 12.29 136.73 19.21 125.73 28.29C123.67 30.01 122.07 32.29 120.25 34.29C119.85 34.74 119.45 35.17 118.86 35.81L118.91 28.72Z" fill="#3559D5"/>
<path d="M363.75 103.03H360.21V66.94H363.67V82.08H381.76V80.71C381.76 76.92 381.67 73.12 381.69 69.33C381.69 66.98 381.92 66.82 384.24 66.85H385.73V102.94H381.83V85.85H363.75V103.03Z" fill="#3559D5"/>
<path d="M277.32 66.7C282.97 78.88 288.53 90.89 294.13 102.97H290.05C288.23 99.09 286.45 95.27 284.65 91.41H268.99L263.77 103.03H259.93C259.99 100.94 275.39 68.43 277.32 66.7ZM277.12 75.35L276.64 75.57L270.89 87.67H282.89L277.12 75.35Z" fill="#3559D5"/>
<path d="M295.99 126.34H316.32V130.34H299.54V141.12H316.29V144.79H299.53V158.79H316.26V162.4H295.99V126.34Z" fill="#3559D5"/>
<path d="M211.64 103.03H207.44L202.09 91.43H186.62L181.1 103.03H176.99C177.35 102.19 177.64 101.42 177.99 100.68C183.05 89.8867 188.12 79.1 193.2 68.32C193.49 67.7 194.2 67.32 194.74 66.71L211.64 103.03ZM200.07 87.73C200.07 87.6 200.14 87.51 200.07 87.45C198.33 83.56 196.59 79.68 194.82 75.81C194.7 75.57 194.34 75.44 194.12 75.28C192.12 79.52 190.28 83.6 188.37 87.73H200.07Z" fill="#3559D5"/>
<path d="M200.33 126.38H204.09C204.218 126.888 204.301 127.407 204.34 127.93C204.34 134.72 204.34 141.51 204.16 148.29C204.08 150.683 203.779 153.063 203.26 155.4C202.749 157.572 201.537 159.515 199.81 160.928C198.084 162.342 195.94 163.147 193.71 163.22C192.033 163.297 190.353 163.163 188.71 162.82C183.55 161.6 180.38 157.73 180.28 152.14C180.12 143.64 180.28 135.14 180.28 126.63C180.303 126.533 180.336 126.439 180.38 126.35H183.86V127.7C183.93 135.2 183.98 142.7 184.1 150.21C184.15 151.605 184.32 152.994 184.61 154.36C185.19 157.36 188.1 159.43 191.76 159.61C196.85 159.86 200.33 156.5 200.35 151.19V127.71L200.33 126.38Z" fill="#3559D5"/>
<path d="M369.39 131.6L366.39 133.8C365.39 132.72 364.57 131.69 363.61 130.8C362.884 130.162 362.002 129.727 361.055 129.537C360.107 129.347 359.126 129.411 358.21 129.72C355.5 130.46 354.12 132.78 355.28 135.34C356.08 136.924 357.18 138.337 358.52 139.5C360.84 141.63 363.41 143.5 365.79 145.5C366.678 146.307 367.467 147.217 368.14 148.21C369.089 149.443 369.711 150.896 369.949 152.434C370.187 153.972 370.032 155.545 369.499 157.008C368.967 158.47 368.073 159.774 366.902 160.799C365.731 161.824 364.32 162.536 362.8 162.87C358.4 164.05 354.55 163.06 351.54 159.54C350.54 158.34 349.68 156.97 348.63 155.54L352.05 153.83C352.75 154.9 353.27 155.83 353.88 156.61C354.387 157.352 355.035 157.987 355.787 158.479C356.539 158.971 357.381 159.309 358.264 159.476C359.147 159.642 360.055 159.632 360.934 159.448C361.814 159.263 362.648 158.907 363.39 158.4C364.497 157.765 365.314 156.725 365.668 155.499C366.023 154.273 365.887 152.958 365.29 151.83C364.04 148.95 361.76 146.93 359.36 145.04C358.01 143.98 356.6 143.04 355.25 141.95C353.122 140.347 351.708 137.974 351.31 135.34C350.977 133.852 351.091 132.3 351.637 130.876C352.183 129.453 353.137 128.223 354.38 127.34C355.616 126.338 357.107 125.703 358.685 125.505C360.263 125.307 361.865 125.555 363.31 126.22C365.824 127.373 367.939 129.246 369.39 131.6Z" fill="#3559D5"/>
<path d="M501.09 66.92H505.04L516.85 94.68L528.85 66.95H532.91C527.68 79.04 522.51 90.95 517.21 103.2C516.69 102.74 515.98 102.41 515.75 101.87C510.937 90.6433 506.15 79.3633 501.39 68.03C501.268 67.6664 501.168 67.2957 501.09 66.92Z" fill="#3559D5"/>
<path d="M257.99 126.32H262.15L273.99 154.03L285.99 126.32H289.99L274.39 162.32L273.18 162.22L257.99 126.32Z" fill="#3559D5"/>
<path d="M353.22 99.42V103.03H333.22C338.22 92.36 343.15 81.77 348.15 71.03H338.59C335.07 71.29 334.47 70.64 334.91 67.03H353.8C353.38 68.22 353.06 69.39 352.57 70.47C348.683 78.95 344.78 87.42 340.86 95.88C340.34 97.03 339.86 98.19 339.27 99.48L353.22 99.42Z" fill="#3559D5"/>
<path d="M406.99 126.32H411.25C414.34 131.32 417.36 136.17 420.46 141.16L429.46 126.33H433.62C433.26 127.03 432.99 127.66 432.62 128.25C429.8 132.89 427.02 137.55 424.14 142.15C422.803 144.2 422.106 146.602 422.14 149.05V162.31H418.68V161.03C418.68 156.47 418.74 151.92 418.68 147.37C418.659 146.232 418.36 145.116 417.81 144.12C415.17 139.7 412.4 135.37 409.69 130.98C408.78 129.51 407.99 128.03 406.99 126.32Z" fill="#3559D5"/>
<path d="M393.04 130.41C390.36 130.06 387.74 130.9 385.14 129.95V126.36H404.63V130.29H397.09V162.29H393.04V130.41Z" fill="#3559D5"/>
<path d="M441.21 67.03V99.36H454.79V103.03H437.33V67.03H441.21Z" fill="#3559D5"/>
<path d="M252.7 162.35H248.99V126.35H252.73L252.7 162.35Z" fill="#3559D5"/>
<path d="M377.04 126.34H380.5V162.34H377.04V126.34Z" fill="#3559D5"/>
<path d="M72.87 159.94C72.8697 159.367 72.9713 158.798 73.17 158.26C73.56 157.68 74.11 156.95 74.7 156.84C75.0657 156.817 75.4323 156.87 75.7765 156.995C76.1208 157.121 76.4352 157.317 76.7 157.57C77.2119 158.188 77.5156 158.952 77.5677 159.753C77.6197 160.554 77.4176 161.351 76.99 162.03C76.7665 162.319 76.4843 162.558 76.162 162.73C75.8397 162.903 75.4846 163.005 75.12 163.03C74.7659 162.969 74.4276 162.838 74.1252 162.644C73.8229 162.45 73.5626 162.197 73.36 161.9C73.072 161.284 72.9056 160.619 72.87 159.94Z" fill="#3559D5"/>
</g>
<defs>
<clipPath id="clip0_1_2">
<rect width="532.91" height="180.01" fill="white"/>
</clipPath>
</defs>
</svg>
