<?xml version="1.0" standalone="no"?>
<!DOCTYPE svg PUBLIC "-//W3C//DTD SVG 1.1//EN" "http://www.w3.org/Graphics/SVG/1.1/DTD/svg11.dtd">
<svg xmlns="http://www.w3.org/2000/svg" id="Слой_1" data-name="Слой 1" viewBox="0 0 532.91 180.01" width="532.9099731445312" height="180.00999450683594">
  <defs>
    <style>
      .cls-1 {
        fill: #0073b5;
      }
    </style>
  </defs>
  <path class="cls-1" d="M114.68,133.06l4.57,10.06H142c-1.21-2.92-2.28-5.66-3.46-8.34q-9.06-20.65-18.16-41.27a18.62,18.62,0,0,1-1.61-7.85c.09-15.66,0-31.33,0-47V37.35l.29-.19c1.72,2.47,3.44,4.94,5.25,7.56a16.81,16.81,0,0,0,1-1.75c2.29-5.35,6.71-7.87,12.08-9.14,7.44-1.76,15.52,2.63,17.89,9.71a9.51,9.51,0,0,1-1.27,9.08c-2.29,3.16-5.65,4.18-9.66,2.8a45.84,45.84,0,0,1-4.33-2c-.42-.2-.83-.43-1.3-.67-.16,7,4.66,13.1,12.39,12.18a16.4,16.4,0,0,0,12.74-8.29c.15-.25.33-.49.68-1v51.8a116.19,116.19,0,0,1-1.74,22.65c-2.24,11.2-8.15,20.18-16.7,27.52-11.74,10.09-25.46,16.17-40.41,19.66a96.28,96.28,0,0,1-30.59,2.39c-20.22-1.81-38.91-7.89-55.08-20.55A48.87,48.87,0,0,1,.77,123.81c-.42-4.61-.7-9.24-.72-13.87-.09-17.5,0-35,0-52.49A11.72,11.72,0,0,1,.1,56.23c1.18,1.46,2.19,2.78,3.28,4,4.5,5.17,12.34,6.49,17.53,2.89,3.63-2.51,5-6.11,4.82-10.59-1.13.66-2.08,1.29-3.09,1.8-2.58,1.32-5.27,2.07-8.18,1.29a8.43,8.43,0,0,1-5.85-10,14.9,14.9,0,0,1,16-12,18.87,18.87,0,0,1,10.15,3.76,12.37,12.37,0,0,1,4.07,4.94c.35.79.78,1.56,1.29,2.57l5.33-7.44V82.9a16.32,16.32,0,0,1-1.32,6.72q-8.4,19.25-16.76,38.51c-2.26,5.21-4.49,10.44-6.74,15.67a3.31,3.31,0,0,1-.17.58H43.09c1.74-4,3.58-8.14,5.55-12.6,7.74,11.62,19.19,16.28,32.55,16.4S106.19,144.42,114.68,133.06ZM70.13,167.34a4.36,4.36,0,0,0,3.4,4.18A5.75,5.75,0,0,0,80.4,168a15.08,15.08,0,0,0,0-10.55,5.5,5.5,0,0,0-7.07-3.25c-.19.07-.38.16-.57.25-2.83,1.36-4,5.29-2.39,8.29s4.25,3.44,7.37,1.57c0,2.6-.74,4.21-2.13,4.52s-2.09-.61-2.46-1.87Zm17.91-10h6.22v-3H85.5c-.56,3-1.11,5.92-1.67,8.93l2.61.4.46-.37a2.91,2.91,0,0,1,3.21-.66,2.74,2.74,0,0,1,1.53,2.88,3.79,3.79,0,0,1-.44,2.06,3,3,0,0,1-1.92,1.3c-.72,0-1.48-.68-2.14-1.17-.28-.2-.33-.7-.51-1.15l-3,.34c0,3,2.69,5,6.28,4.71,3.28-.25,5.67-3.55,5.14-7.1s-3.32-5.29-7.41-4.38Zm13.65,10.93-.4-.52a32.85,32.85,0,0,0,2.64-2.21,30.48,30.48,0,0,0,3.14-3.58,5.16,5.16,0,0,0,.8-4.34c-.74-3-4.2-4.53-7.69-3.31a4.64,4.64,0,0,0-3.26,4.75l2.48.28h.6c.09-.34.16-.64.25-.94a2.17,2.17,0,0,1,2.55-1.71l.19.05a1.87,1.87,0,0,1,1.68,2,2,2,0,0,1-.06.34A7.08,7.08,0,0,1,103.1,162c-1.57,1.8-3.43,3.36-4.93,5.21a21,21,0,0,0-2.06,4h11.83v-3Zm-36.75,3V154H62.4l.26.3-5.19,4.56v2.67l4.27-2.45v12.28Z" transform="translate(-0.01 0.03)"/>
  <path class="cls-1" d="M79.56,28.42h3.2l52.72,113.39H123.4c-6-12.35-11.62-24.91-17.77-37H56.19c-5.3,11.39-10.61,22.68-15.81,34a4.9,4.9,0,0,1-5.1,3.26c-3-.09-5.91,0-9.27,0ZM81,53C74.51,66.53,68.07,80,61.61,93.48h39.07C93.68,80.06,88.1,66.12,81,53Z" transform="translate(-0.01 0.03)"/>
  <path class="cls-1" d="M250.75,67.08c1.72,11.91,3.44,23.81,5.19,35.84H252.1c-1.1-8.15-2.21-16.33-3.31-24.49-1.06.74-9.46,17.36-12.35,24.47H235L222.6,78.5h-.31c-.26,1.66-.58,3.32-.79,5-.71,5.66-1.35,11.33-2.08,17-.33,2.59-.4,2.59-3,2.54h-1c1.62-12,3.22-23.92,4.82-35.83l.32-.06c.2.36.41.71.59,1.08Q228,81.47,234.77,94.72a8.06,8.06,0,0,0,1,1.25l14.3-29Z" transform="translate(-0.01 0.03)"/>
  <path class="cls-1" d="M496.64,85.26c.8,10.95-9.81,18.88-19,18.81-8.55-.06-19-6.85-18.8-19.36a18.91,18.91,0,0,1,18.63-18.64C487.33,66.05,497.3,73.63,496.64,85.26Zm-19,14.9c7.9.31,15.22-5.5,15.18-15.16a15,15,0,0,0-14.73-15.27h-.21c-9-.09-15,6.6-15,16.59,0,7.33,7.24,14.46,14.8,13.84Z" transform="translate(-0.01 0.03)"/>
  <path class="cls-1" d="M430.4,85.15c0,10.74-8.21,18.81-19.13,18.8-10.72,0-18.69-8.27-18.69-19.35A18.81,18.81,0,0,1,411.2,66.08C422.4,66.09,430.4,74.06,430.4,85.15Zm-19,15c9,.29,15.19-7.07,15.2-15.21a15.37,15.37,0,0,0-15-15.25c-9,0-15,6.61-15,16.64,0,7.12,7.15,14.46,14.88,13.83Z" transform="translate(-0.01 0.03)"/>
  <path class="cls-1" d="M323.89,66.78l4,.24v36.19a11.15,11.15,0,0,1-2.38-1.57c-5.75-6.59-11.43-13.24-17.16-19.86-1.49-1.71-3.06-3.36-4.81-5.28V103h-4V67l.81-.06L323.89,94Z" transform="translate(-0.01 0.03)"/>
  <path class="cls-1" d="M216.8,135.71v26.57h-3.94V126.19a14.84,14.84,0,0,1,1.82,1.45q4.47,5,8.87,10.06,6.57,7.55,13.11,15.12a.84.84,0,0,0,.58.39V126.39h3.9v35.92h-1Z" transform="translate(-0.01 0.03)"/>
  <path class="cls-1" d="M333.05,146l12.62,16.3h-4.88c-3.69-4.89-7.43-9.81-11.14-14.76-.81-1.09-1.66-1.95-3.26-1.46v16.22H322.5v-35.7c.29-.12.47-.28.64-.27,4.74.15,9.51.08,14.22.57a8.29,8.29,0,0,1,7.59,6.8,9,9,0,0,1-2.91,9.54c-2.19,1.88-4.87,2.47-7.67,2.68A5.39,5.39,0,0,1,333.05,146Zm-6.6-16v12c1.55,0,3,.08,4.49,0a35.56,35.56,0,0,0,6.59-.65c2.81-.72,3.83-2.54,3.67-5.49s-1.53-4.81-4.24-5.16c-3.45-.47-7-.46-10.51-.65Z" transform="translate(-0.01 0.03)"/>
  <path class="cls-1" d="M1.87,6.26C2.5,9.69,3,13.15,3.8,16.53c1.24,5,3.94,9,9.51,10.79A37.78,37.78,0,0,0,.09,40.8V.14C15.39,9,30.14,18.34,45.3,27.19V35.5a6.88,6.88,0,0,1-.86-.76C39.19,27.82,32.21,23,24.86,18.63c-6.7-4-13.5-7.73-20.27-11.57a20.54,20.54,0,0,0-2.25-1Z" transform="translate(-0.01 0.03)"/>
  <path class="cls-1" d="M118.92,28.69,164.54,0v41.2a34.83,34.83,0,0,0-13.08-13.76A12.13,12.13,0,0,1,153,26.33c4.41-2.15,6.76-5.86,7.76-10.49.69-3.23,1.13-6.51,1.71-9.92a3.57,3.57,0,0,0-.73.1c-12.72,6.24-25,13.16-36,22.24-2.06,1.72-3.66,4-5.48,6-.4.45-.8.88-1.39,1.52Z" transform="translate(-0.01 0.03)"/>
  <path class="cls-1" d="M363.76,103h-3.54V66.91h3.46V82.05h18.09V80.68c0-3.79-.09-7.59-.07-11.38,0-2.35.23-2.51,2.55-2.48h1.49v36.09h-3.9V85.82H363.76Z" transform="translate(-0.01 0.03)"/>
  <path class="cls-1" d="M277.33,66.67c5.65,12.18,11.21,24.19,16.81,36.27h-4.08c-1.82-3.88-3.6-7.7-5.4-11.56H269L263.78,103h-3.84C260,100.91,275.4,68.4,277.33,66.67Zm-.2,8.65-.48.22-5.75,12.1h12Z" transform="translate(-0.01 0.03)"/>
  <path class="cls-1" d="M296,126.31h20.33v4H299.55v10.78H316.3v3.67H299.54v14h16.73v3.61H296Z" transform="translate(-0.01 0.03)"/>
  <path class="cls-1" d="M211.65,103h-4.2l-5.35-11.6H186.63L181.11,103H177c.36-.84.65-1.61,1-2.35q7.59-16.19,15.21-32.36c.29-.62,1-1,1.54-1.61Zm-11.57-15.3c0-.13.07-.22,0-.28-1.74-3.89-3.48-7.77-5.25-11.64-.12-.24-.48-.37-.7-.53-2,4.24-3.84,8.32-5.75,12.45Z" transform="translate(-0.01 0.03)"/>
  <path class="cls-1" d="M200.34,126.35h3.76a9.1,9.1,0,0,1,.25,1.55c0,6.79,0,13.58-.18,20.36a38.75,38.75,0,0,1-.9,7.11,10.15,10.15,0,0,1-9.55,7.82,20,20,0,0,1-5-.4c-5.16-1.22-8.33-5.09-8.43-10.68-.16-8.5,0-17,0-25.51a1.33,1.33,0,0,1,.1-.28h3.48v1.35c.07,7.5.12,15,.24,22.51a24.14,24.14,0,0,0,.51,4.15c.58,3,3.49,5.07,7.15,5.25,5.09.25,8.57-3.11,8.59-8.42V127.68Z" transform="translate(-0.01 0.03)"/>
  <path class="cls-1" d="M369.4,131.57l-3,2.2c-1-1.08-1.82-2.11-2.78-3a5.51,5.51,0,0,0-5.4-1.08c-2.71.74-4.09,3.06-2.93,5.62a13.68,13.68,0,0,0,3.24,4.16c2.32,2.13,4.89,4,7.27,6a15.15,15.15,0,0,1,2.35,2.71,9.24,9.24,0,0,1-5.34,14.66c-4.4,1.18-8.25.19-11.26-3.33-1-1.2-1.86-2.57-2.91-4l3.42-1.71c.7,1.07,1.22,2,1.83,2.78a6.84,6.84,0,0,0,9.51,1.79l0,0a4.92,4.92,0,0,0,1.9-6.57c-1.25-2.88-3.53-4.9-5.93-6.79-1.35-1.06-2.76-2-4.11-3.09a10.18,10.18,0,0,1-3.94-6.61,7.74,7.74,0,0,1,3.07-8,8.52,8.52,0,0,1,8.93-1.12A14,14,0,0,1,369.4,131.57Z" transform="translate(-0.01 0.03)"/>
  <path class="cls-1" d="M501.1,66.89h3.95l11.81,27.76,12-27.73h4.06c-5.23,12.09-10.4,24-15.7,36.25-.52-.46-1.23-.79-1.46-1.33Q508.54,85,501.4,68A9.55,9.55,0,0,1,501.1,66.89Z" transform="translate(-0.01 0.03)"/>
  <path class="cls-1" d="M258,126.29h4.16L274,154l12-27.71H290l-15.6,36-1.21-.1Z" transform="translate(-0.01 0.03)"/>
  <path class="cls-1" d="M353.23,99.39V103h-20c5-10.67,9.93-21.26,14.93-32H338.6c-3.52.26-4.12-.39-3.68-4h18.89c-.42,1.19-.74,2.36-1.23,3.44q-5.83,12.72-11.71,25.41c-.52,1.15-1,2.31-1.59,3.6Z" transform="translate(-0.01 0.03)"/>
  <path class="cls-1" d="M407,126.29h4.26c3.09,5,6.11,9.85,9.21,14.84l9-14.83h4.16c-.36.7-.63,1.33-1,1.92-2.82,4.64-5.6,9.3-8.48,13.9a12.32,12.32,0,0,0-2,6.9v13.26h-3.46V161c0-4.56.06-9.11,0-13.66a7,7,0,0,0-.87-3.25c-2.64-4.42-5.41-8.75-8.12-13.14C408.79,129.48,408,128,407,126.29Z" transform="translate(-0.01 0.03)"/>
  <path class="cls-1" d="M393.05,130.38c-2.68-.35-5.3.49-7.9-.46v-3.59h19.49v3.93H397.1v32h-4.05Z" transform="translate(-0.01 0.03)"/>
  <path class="cls-1" d="M441.22,67V99.33H454.8V103H437.34V67Z" transform="translate(-0.01 0.03)"/>
  <path class="cls-1" d="M252.71,162.32H249v-36h3.74Z" transform="translate(-0.01 0.03)"/>
  <path class="cls-1" d="M377.05,126.31h3.46v36h-3.46Z" transform="translate(-0.01 0.03)"/>
  <path class="cls-1" d="M72.88,159.91a4.84,4.84,0,0,1,.3-1.68c.39-.58.94-1.31,1.53-1.42a2.65,2.65,0,0,1,2,.73A3.81,3.81,0,0,1,77,162a2.59,2.59,0,0,1-1.87,1,2.68,2.68,0,0,1-1.76-1.13A5.28,5.28,0,0,1,72.88,159.91Z" transform="translate(-0.01 0.03)"/>
</svg>